<?xml version="1.0" standalone="no"?>
<!DOCTYPE svg PUBLIC "-//W3C//DTD SVG 20010904//EN"
 "http://www.w3.org/TR/2001/REC-SVG-20010904/DTD/svg10.dtd">
<svg version="1.0" xmlns="http://www.w3.org/2000/svg"
 width="1500.000000pt" height="1500.000000pt" viewBox="0 0 1500.000000 1500.000000"
 preserveAspectRatio="xMidYMid meet">

<g transform="translate(0.000000,1500.000000) scale(0.100000,-0.100000)"
fill="#000000" stroke="none">
<path d="M6920 14974 c-1648 -112 -3078 -711 -4345 -1822 -127 -112 -586 -565
-669 -661 -26 -31 -87 -101 -135 -156 -386 -446 -703 -915 -976 -1440 -203
-389 -402 -899 -519 -1329 -320 -1172 -357 -2473 -106 -3693 209 -1008 634
-1945 1269 -2797 438 -586 1043 -1191 1637 -1636 913 -684 1942 -1129 3054
-1319 1138 -195 2358 -141 3420 150 1061 291 2027 824 2905 1602 128 114 517
501 639 637 704 783 1208 1635 1524 2575 515 1537 501 3432 -38 4940 -271 758
-657 1451 -1159 2080 -419 525 -978 1068 -1497 1456 -669 499 -1378 862 -2159
1105 -508 159 -1117 269 -1704 309 -275 18 -864 18 -1141 -1z m1030 -4198
c730 -97 1350 -406 1885 -941 537 -537 843 -1150 942 -1890 22 -164 25 -684 5
-845 -76 -622 -286 -1133 -664 -1620 -134 -173 -425 -464 -598 -598 -487 -378
-998 -588 -1620 -664 -161 -20 -681 -17 -845 5 -352 47 -678 142 -972 282
-698 333 -1343 1002 -1629 1692 -123 295 -194 569 -236 903 -17 140 -17 659 0
800 60 486 217 944 450 1314 148 235 265 379 497 612 302 302 531 473 860 639
320 162 721 280 1070 314 61 6 124 13 140 15 78 11 597 -3 715 -18z m6421
-631 c234 -588 374 -1213 445 -1975 22 -237 30 -862 15 -1112 -42 -691 -154
-1311 -336 -1862 -63 -189 -128 -356 -139 -356 -5 0 -69 29 -140 64 -72 35
-168 81 -213 102 -46 21 -83 39 -83 41 0 2 6 19 14 37 24 56 142 443 184 601
105 392 177 826 214 1285 17 213 17 845 0 1055 -56 700 -192 1327 -419 1940
-24 66 -41 121 -36 123 4 1 103 49 218 106 137 67 213 99 217 92 5 -6 31 -69
59 -141z m-13467 20 c119 -57 216 -106 216 -108 0 -2 -18 -53 -40 -113 -221
-593 -364 -1268 -411 -1934 -16 -225 -16 -795 0 -1020 34 -482 112 -943 236
-1387 46 -167 144 -472 188 -586 l27 -68 -217 -105 c-200 -96 -219 -104 -230
-88 -33 46 -176 447 -244 688 -115 407 -211 966 -249 1451 -18 225 -24 762
-11 1010 41 792 189 1536 435 2179 28 73 77 186 81 186 1 0 100 -47 219 -105z
m12973 -245 c90 -222 199 -589 266 -895 109 -490 158 -964 158 -1525 0 -676
-73 -1241 -237 -1845 -51 -190 -148 -483 -178 -541 l-21 -42 -226 112 -225
111 53 165 c219 678 314 1298 314 2040 0 517 -42 935 -142 1405 -57 268 -153
598 -244 834 -19 52 -32 97 -28 101 4 4 82 42 173 84 91 43 190 90 220 105 30
15 58 25 61 22 3 -4 29 -62 56 -131z m-12393 -29 c124 -59 147 -74 141 -88
-36 -95 -162 -487 -190 -593 -107 -406 -175 -821 -205 -1250 -15 -200 -15
-720 0 -920 45 -631 167 -1216 369 -1767 l31 -83 -227 -110 c-125 -61 -230
-107 -234 -103 -14 17 -108 265 -152 403 -222 703 -317 1336 -317 2120 0 453
28 806 94 1205 67 404 195 874 327 1207 l51 126 81 -38 c45 -21 149 -70 231
-109z m11869 -173 c91 -230 178 -526 242 -823 100 -469 145 -895 145 -1395 0
-610 -71 -1154 -224 -1720 -49 -180 -129 -425 -146 -445 -8 -10 -50 6 -198 75
-310 145 -732 359 -732 372 0 7 25 98 55 203 129 451 182 777 206 1273 18 357
-6 791 -62 1127 -43 263 -85 435 -185 764 -51 166 -63 216 -53 222 7 4 105 52
217 106 113 54 311 151 441 215 130 64 241 117 247 117 6 1 27 -41 47 -91z
m-11471 -19 c106 -50 202 -97 212 -105 11 -8 26 -14 33 -14 7 0 118 -51 247
-114 l235 -114 -25 -84 c-14 -45 -40 -130 -59 -188 -175 -551 -256 -1206 -226
-1822 26 -548 88 -891 261 -1453 22 -71 40 -135 40 -141 0 -13 -891 -444 -918
-444 -14 0 -80 172 -135 350 -196 634 -287 1243 -287 1930 0 635 79 1211 245
1788 74 258 161 502 179 502 3 0 92 -41 198 -91z m1023 -489 c44 -21 136 -64
205 -96 266 -122 690 -333 690 -343 0 -6 -18 -75 -40 -153 -128 -451 -177
-885 -151 -1325 20 -357 53 -557 148 -901 25 -90 43 -165 41 -166 -12 -9 -659
-319 -931 -447 -195 -92 -208 -96 -218 -78 -39 74 -147 437 -194 652 -83 386
-110 662 -110 1147 0 485 27 760 110 1147 45 209 147 551 195 655 l13 27 81
-40 c44 -22 117 -57 161 -79z m9445 93 c22 -49 99 -284 135 -413 67 -244 119
-523 152 -825 14 -127 18 -244 18 -565 0 -434 -9 -558 -60 -877 -43 -268 -91
-467 -166 -701 -40 -121 -40 -122 -67 -115 -15 3 -207 95 -427 203 -220 108
-461 225 -535 259 -74 34 -141 65 -148 70 -10 6 -10 20 2 72 90 403 106 490
126 704 45 481 2 989 -121 1436 -49 180 -61 230 -57 234 10 10 780 385 791
385 6 0 80 36 162 80 83 43 157 79 166 79 9 1 22 -11 29 -26z"/>
</g>
</svg>
